# xmcd CD database file
#
# Track frame offsets:
#	150
#	24218
#	43939
#	69396
#	92469
#	124459
#	137978
#	160004
#
# Disc length: 2437 seconds
#
# Revision: 0
# Processed by: cddbd v1.5PL3 Copyright (c) Steve Scherf et al.
# Submitted via: CDex 1.51
#
DISCID=66098308
DTITLE=Peter and Jirivil Wood - The Birth of Compassion
DYEAR=1900
DGENRE=New Age
TTITLE0=Holy Wind
TTITLE1=Turn Your faith
TTITLE2=If Ever A Love
TTITLE3=Immersed
TTITLE4=Falling
TTITLE5=Diamond in the Sunlight
TTITLE6=Starry Blue
TTITLE7=Peace
EXTD=
EXTT0=
EXTT1=
EXTT2=
EXTT3=
EXTT4=
EXTT5=
EXTT6=
EXTT7=
PLAYORDER=
